<svg viewBox="0 0 168 50" xmlns="http://www.w3.org/2000/svg" xmlns:xlink="http://www.w3.org/1999/xlink" width="168.000000" height="50.000000" fill="none" customFrame="#000000">
	<mask id="mask_3" width="100.211998" height="36.383335" x="52.729614" y="8.126465" maskUnits="userSpaceOnUse">
		<g filter="url(#pixso_custom_mask_type_luminance)">
			<g id="Group">
				<path id="Vector" d="M52.7296 8.12646L152.942 8.12646L152.942 44.5098L52.7296 44.5098L52.7296 8.12785L52.7296 8.12646Z" fill="rgb(255,255,255)" fill-rule="nonzero" />
			</g>
		</g>
	</mask>
	<mask id="mask_2" width="100.211998" height="36.383335" x="52.729614" y="8.126465" maskUnits="userSpaceOnUse">
		<g filter="url(#pixso_custom_mask_type_luminance)">
			<g id="Group">
				<path id="Vector" d="M52.7296 8.12646L152.942 8.12646L152.942 44.5098L52.7296 44.5098" fill="rgb(255,255,255)" fill-rule="nonzero" />
			</g>
		</g>
	</mask>
	<mask id="mask_1" width="100.211998" height="36.383335" x="52.729614" y="8.126465" maskUnits="userSpaceOnUse">
		<g filter="url(#pixso_custom_mask_type_luminance)">
			<g id="Group">
				<path id="Vector" d="M52.7296 8.12646L152.942 8.12646L152.942 44.5098L52.7296 44.5098" fill="rgb(255,255,255)" fill-rule="nonzero" />
			</g>
		</g>
	</mask>
	<defs>
		<filter id="pixso_custom_mask_type_luminance">
			<feColorMatrix type="matrix" values="1 0 0 0 0 0 1 0 0 0 0 0 1 0 0 0 0 0 1 0 " />
		</filter>
	</defs>
	<mask id="mask_0" width="100.211998" height="36.383335" x="52.729614" y="8.126465" maskUnits="userSpaceOnUse">
		<g filter="url(#pixso_custom_mask_type_luminance)">
			<g id="Group">
				<path id="Vector" d="M52.7296 8.12646L152.942 8.12646L152.942 44.5098L52.7296 44.5098L52.7296 8.12785L52.7296 8.12646Z" fill="rgb(255,255,255)" fill-rule="nonzero" />
			</g>
		</g>
	</mask>
	<g id="Group">
		<path id="Vector" d="M163.8 0L4.2 0C1.8804 0 0 1.86548 0 4.16667L0 45.8333C0 48.1345 1.8804 50 4.2 50L163.8 50C166.12 50 168 48.1345 168 45.8333L168 4.16667C168 1.86548 166.12 0 163.8 0Z" fill="rgb(21.25,21.25,21.25)" fill-rule="evenodd" />
		<path id="Vector" d="M35.3738 14.7581C38.9354 14.7581 41.2118 18.1887 41.2118 18.1887C41.2118 18.1887 37.7398 20.0665 37.7398 24.1415C37.7398 28.979 42.1036 30.3873 42.1036 30.3873C42.1036 30.3873 38.6596 38.5206 34.79 38.5206C32.6144 38.5206 32.4688 37.2748 29.5778 37.2748C27.0662 37.2748 26.2206 38.5192 24.3082 38.5192C20.657 38.5192 15.9418 30.5887 15.9418 24.1373C15.9418 17.4387 20.7158 14.7554 23.709 14.7554C26.3368 14.7554 27.433 16.297 29.547 16.297C31.3292 16.297 32.732 14.7554 35.3738 14.7554L35.3738 14.7581ZM34.7606 7.9248C35.2828 11.2109 32.291 15.272 28.7126 15.1401C28.1876 10.9637 32.0446 8.14981 34.7578 7.92897L34.7606 7.9248Z" fill="rgb(255,255,255)" fill-rule="evenodd" />
		<g id="Group">
			<g id="Mask group" mask="url(#mask_0)">
				<path id="Vector" d="M61.9612 32.6029L60.5472 28.2196C60.3974 27.7752 60.116 26.7196 59.7044 25.0599L59.654 25.0599C59.486 25.7738 59.2228 26.8279 58.8588 28.2224L57.4686 32.6071L61.9626 32.6071L61.9612 32.6029ZM66.8514 39.6029L63.9954 39.6029L62.433 34.6724L56.9996 34.6724L55.5086 39.6029L52.7296 39.6029L58.1154 22.8154L61.4404 22.8154L66.8514 39.6043L66.8514 39.6029Z" fill="rgb(255,255,255)" fill-rule="evenodd" />
			</g>
			<g id="Mask group" mask="url(#mask_1)">
				<path id="Vector" d="M77.9436 33.5001C77.9436 32.3223 77.6804 31.3501 77.1512 30.5862C76.5716 29.7904 75.7932 29.3917 74.8174 29.3917C74.1566 29.3917 73.5574 29.614 73.0184 30.0515C72.4793 30.4936 72.1076 31.1042 71.9642 31.7834C71.8802 32.1167 71.8382 32.3862 71.8382 32.6029L71.8382 34.6223C71.8382 35.5029 72.1042 36.2473 72.6446 36.8542C73.1822 37.4598 73.8808 37.764 74.7404 37.764C75.7484 37.764 76.5352 37.3723 77.098 36.5945C77.6608 35.8126 77.9422 34.7834 77.9422 33.5042M80.6722 33.407C80.6722 35.4654 80.1164 37.0917 79.002 38.2876C78.0038 39.3487 76.762 39.8806 75.2836 39.8806C73.6876 39.8806 72.5396 39.3084 71.8396 38.1626L71.8396 44.5154L69.1656 44.5154L69.1656 31.482C69.1656 30.1862 69.132 28.8598 69.0676 27.5001L71.4238 27.5001L71.5736 29.4223L71.624 29.4223C72.52 27.9751 73.8738 27.2515 75.6938 27.2515C77.1162 27.2515 78.3034 27.8167 79.254 28.9459C80.2032 30.0779 80.6792 31.564 80.6792 33.407" fill="rgb(255,255,255)" fill-rule="evenodd" />
			</g>
			<g id="Mask group" mask="url(#mask_2)">
				<path id="Vector" d="M91.8176 33.5001C91.8176 32.3223 91.5516 31.3501 91.0196 30.5862C90.4414 29.7904 89.6658 29.3917 88.69 29.3917C88.0278 29.3917 87.43 29.614 86.8896 30.0515C86.3505 30.4933 85.9792 31.1042 85.8368 31.7834C85.7528 32.1167 85.7108 32.3862 85.7108 32.6029L85.7108 34.6223C85.7108 35.5029 85.9796 36.2473 86.5158 36.8542C87.0534 37.4584 87.7534 37.764 88.6158 37.764C89.6238 37.764 90.412 37.3723 90.972 36.5945C91.532 35.8126 91.8162 34.7834 91.8162 33.5042M94.5462 33.407C94.5462 35.4654 93.9862 37.0917 92.8732 38.2876C91.8736 39.3487 90.6332 39.8806 89.1548 39.8806C87.5546 39.8806 86.4066 39.3084 85.7108 38.1626L85.7108 44.5154L83.0284 44.5154L83.0284 31.482C83.0284 30.1862 82.9948 28.8598 82.9304 27.5001L85.2866 27.5001L85.4364 29.4223L85.4868 29.4223C86.38 27.9751 87.7366 27.2515 89.558 27.2515C90.979 27.2515 92.1676 27.8167 93.1196 28.9459C94.0674 30.0779 94.5462 31.564 94.5462 33.407Z" fill="rgb(255,255,255)" fill-rule="evenodd" />
			</g>
			<path id="Vector" d="M110.06 34.8946C110.06 36.3251 109.56 37.4862 108.571 38.3834C107.482 39.3598 105.963 39.8501 104.014 39.8501C102.215 39.8501 100.772 39.5001 99.6827 38.8043L100.303 36.5612C101.479 37.2584 102.773 37.6071 104.177 37.6071C105.188 37.6071 105.973 37.3807 106.534 36.9237C107.099 36.4654 107.381 35.8571 107.381 35.0946C107.381 34.414 107.148 33.8418 106.686 33.3765C106.221 32.9126 105.454 32.4793 104.378 32.0821C101.447 30.9848 99.9823 29.3834 99.9823 27.2737C99.9823 25.8959 100.5 24.7696 101.532 23.8848C102.565 23.0071 103.936 22.5654 105.64 22.5654C107.166 22.5654 108.433 22.8321 109.441 23.3626L108.769 25.5571C107.82 25.0404 106.75 24.7834 105.554 24.7834C104.607 24.7834 103.865 25.0168 103.334 25.4821C102.889 25.8959 102.662 26.4015 102.662 27.0029C102.662 27.6654 102.92 28.2154 103.432 28.6459C103.88 29.0432 104.692 29.4765 105.864 29.9404C107.306 30.5237 108.363 31.2043 109.042 31.9821C109.724 32.7626 110.064 33.7348 110.064 34.8946M118.945 29.5196L115.991 29.5196L115.991 35.3946C115.991 36.8918 116.512 37.6376 117.555 37.6376C118.035 37.6376 118.434 37.5959 118.745 37.5126L118.821 39.5543C118.294 39.7529 117.6 39.8529 116.739 39.8529C115.679 39.8529 114.853 39.5279 114.257 38.8807C113.66 38.2307 113.361 37.1446 113.361 35.6168L113.361 29.5098L111.602 29.5098L111.602 27.4959L113.362 27.4959L113.362 25.2793L115.994 24.4821L115.994 27.4959L118.948 27.4959L118.948 29.5182L118.945 29.5196ZM129.468 33.5154C129.468 32.4071 129.23 31.4557 128.751 30.6598C128.188 29.6987 127.383 29.2182 126.343 29.2182C125.269 29.2182 124.445 29.6987 123.886 30.6598C123.404 31.4557 123.165 32.4237 123.165 33.5654C123.165 34.6765 123.403 35.6293 123.886 36.4237C124.466 37.3848 125.272 37.8654 126.322 37.8654C127.344 37.8654 128.146 37.3751 128.73 36.3987C129.22 35.5862 129.468 34.6265 129.468 33.5154ZM132.247 33.4543C132.247 35.3154 131.715 36.8432 130.656 38.0376C129.546 39.2668 128.075 39.8807 126.238 39.8807C124.466 39.8807 123.056 39.2904 122.004 38.114C120.957 36.9334 120.431 35.4473 120.431 33.6557C120.431 31.7807 120.974 30.2432 122.055 29.0487C123.14 27.8543 124.6 27.2543 126.437 27.2543C128.206 27.2543 129.629 27.8459 130.704 29.0223C131.733 30.1668 132.244 31.6432 132.244 33.4529M140.96 29.8668C140.681 29.8157 140.398 29.7906 140.115 29.7918C139.171 29.7918 138.443 30.1501 137.931 30.8668C137.483 31.4973 137.262 32.2946 137.262 33.2557L137.262 39.6098L134.582 39.6098L134.582 31.314C134.582 29.9209 134.554 28.6473 134.504 27.5029L136.837 27.5029L136.935 29.8196L137.01 29.8196C137.294 29.0251 137.738 28.3834 138.349 27.9029C138.907 27.4831 139.587 27.2554 140.287 27.2543C140.532 27.2543 140.755 27.2709 140.953 27.3029L140.956 29.8696L140.96 29.8668ZM150.388 32.2834C150.408 31.4848 150.231 30.7973 149.87 30.214C149.404 29.4668 148.69 29.0932 147.734 29.0932C146.856 29.0932 146.143 29.4571 145.6 30.1904C145.155 30.7709 144.889 31.4682 144.808 32.2807L150.388 32.2834ZM152.944 32.9807C152.944 33.4626 152.912 33.8696 152.846 34.2029L144.808 34.2029C144.836 35.3973 145.228 36.3112 145.972 36.9418C146.65 37.5029 147.526 37.7848 148.602 37.7848C149.792 37.7848 150.878 37.5973 151.855 37.2154L152.275 39.0807C151.134 39.5807 149.783 39.8307 148.232 39.8307C146.362 39.8307 144.893 39.2779 143.825 38.1751C142.761 37.0709 142.225 35.5862 142.225 33.7279C142.225 31.9043 142.72 30.3848 143.714 29.1723C144.756 27.8779 146.164 27.2307 147.932 27.2307C149.671 27.2307 150.987 27.8779 151.88 29.1723C152.587 30.1973 152.944 31.4682 152.944 32.9779L152.944 32.9807ZM58.2665 13.3668L57.5707 11.214C57.4979 10.9918 57.3635 10.4779 57.1563 9.65844L57.1311 9.65844C57.0471 10.0112 56.9239 10.5265 56.7391 11.214L56.0573 13.3668L58.2665 13.3668ZM60.6675 16.8043L59.2675 16.8043L58.4975 14.3807L55.8263 14.3807L55.0955 16.8057L53.7263 16.8057L56.3723 8.55566L58.0075 8.55566L60.6675 16.8043ZM67.2895 10.8571L65.0425 16.8043L63.7615 16.8043L61.5915 10.8571L63.0055 10.8571L64.0191 14.0029C64.1899 14.5307 64.3355 15.0307 64.4447 15.5071L64.4825 15.5071C64.5805 15.0793 64.7261 14.5765 64.9081 14.0029L65.9063 10.8557L67.2853 10.8557L67.2895 10.8571ZM71.8815 13.8432C70.4199 13.8432 69.6877 14.1987 69.6877 15.0418C69.6877 15.6668 70.0657 15.9723 70.5907 15.9723C71.2627 15.9723 71.8829 15.4584 71.8829 14.7612L71.8829 13.8446L71.8815 13.8432ZM72.0677 16.8057L71.9697 16.1209L71.9319 16.1209C71.5301 16.6723 70.9449 16.9404 70.2001 16.9404C69.1361 16.9404 68.3801 16.1946 68.3801 15.1904C68.3801 13.7209 69.6485 12.9626 71.8437 12.9626L71.8437 12.8515C71.8437 12.0682 71.4293 11.6765 70.6117 11.6765C70.0627 11.6667 69.5233 11.8206 69.0633 12.1182L68.7945 11.2487C69.3447 10.9057 70.0265 10.7348 70.8329 10.7348C72.3813 10.7348 73.1625 11.5543 73.1625 13.1959L73.1625 15.3848C73.1625 15.9876 73.1877 16.4543 73.2465 16.8071L72.0635 16.8071L72.0677 16.8057Z" fill="rgb(255,255,255)" fill-rule="evenodd" />
			<g id="Mask group" mask="url(#mask_3)">
				<path id="Vector" d="M76.7844 16.8069L75.4684 16.8069L75.4684 10.8569L76.7844 10.8569L76.7844 16.8069ZM76.1012 9.87631C75.9968 9.87654 75.8934 9.85596 75.7971 9.81578C75.7008 9.7756 75.6137 9.71665 75.5408 9.64243C75.468 9.5682 75.4109 9.48021 75.373 9.38368C75.335 9.28715 75.317 9.18404 75.32 9.08048C75.32 8.63048 75.6742 8.29854 76.1264 8.29854C76.5772 8.29854 76.9426 8.63187 76.93 9.08326C76.93 9.56104 76.5898 9.87909 76.1012 9.87909L76.1012 9.87631ZM80.4412 16.8069L79.1252 16.8069L79.1252 8.12631L80.4412 8.12631L80.4412 16.8069ZM85.8592 13.843C84.3934 13.843 83.6612 14.1985 83.6612 15.0416C83.6612 15.6666 84.0392 15.9721 84.5642 15.9721C85.232 15.9721 85.855 15.4583 85.855 14.761L85.855 13.8444L85.8592 13.843ZM86.0412 16.8055L85.9432 16.1208L85.9068 16.1208C85.5036 16.6721 84.9184 16.9402 84.1736 16.9402C83.1138 16.9402 82.3564 16.1944 82.3564 15.1902C82.3564 13.7208 83.6248 12.9624 85.8214 12.9624L85.8214 12.8513C85.8214 12.068 85.4056 11.6763 84.5894 11.6763C84.0014 11.6763 83.4904 11.8235 83.041 12.118L82.775 11.2471C83.3238 10.9069 84.007 10.7333 84.812 10.7333C86.3604 10.7333 87.143 11.5527 87.143 13.1971L87.143 15.3846C87.143 15.986 87.1668 16.4513 87.227 16.8055L86.0412 16.8055ZM92.2096 11.7735C91.4508 11.7735 90.7564 12.4346 90.7564 13.3527L90.7564 14.3944C90.7564 15.2138 91.3794 15.8874 92.1844 15.8874C93.1728 15.8874 93.7594 15.0791 93.7594 13.7944C93.7594 12.5944 93.1476 11.7735 92.2082 11.7735M92.4742 16.9402C91.6342 16.9402 91.0112 16.5846 90.608 15.8874L90.5828 15.8874L90.5058 16.8041L89.3858 16.8041C89.4194 16.3291 89.432 15.7902 89.432 15.2027L89.432 8.12354L90.7508 8.12354L90.7508 11.7235L90.7746 11.7235C91.1638 11.0624 91.7966 10.7319 92.6646 10.7319C94.0926 10.7319 95.0922 11.9583 95.0922 13.7458C95.0922 15.593 93.982 16.9402 92.47 16.9402M98.364 16.8069L97.048 16.8069L97.048 8.12631L98.364 8.12631L98.364 16.8069ZM104.325 13.2069C104.325 12.2902 103.863 11.6402 103.02 11.6402C102.262 11.6402 101.668 12.3013 101.578 13.2069L104.325 13.2069ZM105.533 14.1485L101.578 14.1485C101.606 15.2763 102.348 15.9124 103.445 15.9124C104.033 15.9124 104.567 15.8124 105.041 15.6305L105.246 16.5471C104.686 16.793 104.028 16.9152 103.258 16.9152C101.406 16.9152 100.309 15.7402 100.309 13.9152C100.309 12.093 101.431 10.7208 103.113 10.7208C104.621 10.7208 105.577 11.8485 105.577 13.5499C105.58 13.7791 105.567 13.9874 105.531 14.1471L105.533 14.1485ZM113.569 11.6999C112.617 11.6999 112.006 12.593 112.006 13.8416C112.006 15.0638 112.631 15.9583 113.56 15.9583C114.484 15.9583 115.107 15.0027 115.107 13.8138C115.107 12.6055 114.496 11.6985 113.571 11.6985M113.518 16.9402C111.786 16.9402 110.662 15.643 110.662 13.8805C110.662 12.0444 111.81 10.7333 113.618 10.7333C115.322 10.7333 116.472 11.9694 116.472 13.786C116.472 15.6471 115.289 16.943 113.518 16.943M123.556 16.8083L122.24 16.8083L122.24 13.3916C122.24 12.3402 121.836 11.8124 121.043 11.8124C120.263 11.8124 119.724 12.486 119.724 13.2708L119.724 16.8083L118.408 16.8083L118.408 12.5583C118.408 12.0333 118.394 11.4694 118.359 10.8583L119.518 10.8583L119.58 11.7749L119.616 11.7749C119.966 11.136 120.69 10.7333 121.492 10.7333C122.738 10.7333 123.554 11.6874 123.554 13.2416L123.554 16.8055L123.556 16.8083ZM132.173 11.8499L130.724 11.8499L130.724 14.7388C130.724 15.4749 130.978 15.8416 131.489 15.8416C131.722 15.8416 131.918 15.8166 132.077 15.7805L132.112 16.7846C131.856 16.8819 131.513 16.9319 131.09 16.9319C130.05 16.9319 129.431 16.3569 129.431 14.8485L129.431 11.8485L128.568 11.8485L128.568 10.8569L129.431 10.8569L129.431 9.76659L130.724 9.37354L130.724 10.8569L132.173 10.8569L132.173 11.8471L132.173 11.8499ZM139.149 16.8083L137.83 16.8083L137.83 13.4194C137.83 12.3527 137.427 11.8138 136.634 11.8138C135.951 11.8138 135.318 12.2791 135.318 13.2221L135.318 16.811L134 16.811L134 8.12631L135.318 8.12631L135.318 11.6999L135.346 11.6999C135.758 11.0513 136.354 10.7333 137.124 10.7333C138.382 10.7333 139.149 11.7152 139.149 13.2694L139.149 16.8083ZM144.672 13.211C144.672 12.2944 144.21 11.6416 143.367 11.6416C142.611 11.6416 142.016 12.3041 141.929 13.211L144.673 13.211L144.672 13.211ZM145.88 14.1513L141.926 14.1513C141.952 15.2791 142.694 15.9152 143.791 15.9152C144.379 15.9152 144.914 15.8152 145.387 15.6333L145.594 16.5499C145.034 16.7958 144.376 16.918 143.606 16.918C141.751 16.918 140.655 15.743 140.655 13.918C140.655 12.0958 141.775 10.7235 143.459 10.7235C144.971 10.7235 145.923 11.8513 145.923 13.5527C145.929 13.7819 145.916 13.9902 145.881 14.1499L145.88 14.1513Z" fill="rgb(255,255,255)" fill-rule="evenodd" />
			</g>
		</g>
	</g>
</svg>
