<svg viewBox="0 0 168 50" xmlns="http://www.w3.org/2000/svg" xmlns:xlink="http://www.w3.org/1999/xlink" width="168.000000" height="50.000000" fill="none">
	<mask id="mask_6" width="104.918800" height="37.222221" x="51.503174" y="7.902832" maskUnits="userSpaceOnUse">
		<g filter="url(#pixso_custom_mask_type_luminance)">
			<g id="Group">
				<path id="Vector" d="M51.5032 7.90283L156.422 7.90283L156.422 45.1251L51.5032 45.1251L51.5032 7.90283Z" fill="rgb(255,255,255)" fill-rule="nonzero" />
			</g>
		</g>
	</mask>
	<mask id="mask_5" width="104.918800" height="37.222221" x="51.503174" y="7.902832" maskUnits="userSpaceOnUse">
		<g filter="url(#pixso_custom_mask_type_luminance)">
			<g id="Group">
				<path id="Vector" d="M51.5032 7.90283L156.422 7.90283L156.422 45.1251L51.5032 45.1251L51.5032 7.90283Z" fill="rgb(255,255,255)" fill-rule="nonzero" />
			</g>
		</g>
	</mask>
	<mask id="mask_4" width="104.918800" height="37.222221" x="51.503174" y="7.902832" maskUnits="userSpaceOnUse">
		<g filter="url(#pixso_custom_mask_type_luminance)">
			<g id="Group">
				<path id="Vector" d="M51.5032 7.90283L156.422 7.90283L156.422 45.1251L51.5032 45.1251L51.5032 7.90283Z" fill="rgb(231,231,231)" fill-rule="nonzero" />
			</g>
		</g>
	</mask>
	<defs>
		<linearGradient id="paint_linear_0" x1="400.500732" x2="1017.43365" y1="-527.480469" y2="1554.25024" gradientUnits="userSpaceOnUse">
			<stop stop-color="rgb(25,163,180)" offset="0" stop-opacity="1" />
			<stop stop-color="rgb(91,195,175)" offset="0.348170012" stop-opacity="1" />
			<stop stop-color="rgb(201,247,166)" offset="0.922339976" stop-opacity="1" />
			<stop stop-color="rgb(215,254,165)" offset="1" stop-opacity="1" />
		</linearGradient>
		<linearGradient id="paint_linear_1" x1="-148.423218" x2="561.63562" y1="-1073.06848" y2="1228.63879" gradientUnits="userSpaceOnUse">
			<stop stop-color="rgb(252,34,124)" offset="0" stop-opacity="1" />
			<stop stop-color="rgb(254,235,123)" offset="1" stop-opacity="1" />
		</linearGradient>
		<linearGradient id="paint_linear_2" x1="470.518066" x2="1511.71936" y1="-441.658905" y2="2260.26392" gradientUnits="userSpaceOnUse">
			<stop stop-color="rgb(14,77,160)" offset="0" stop-opacity="1" />
			<stop stop-color="rgb(107,254,212)" offset="1" stop-opacity="1" />
		</linearGradient>
		<linearGradient id="paint_linear_3" x1="2674.98413" x2="738.660278" y1="277.31189" y2="2488.82178" gradientUnits="userSpaceOnUse">
			<stop stop-color="rgb(252,71,46)" offset="0" stop-opacity="1" />
			<stop stop-color="rgb(252,71,46)" offset="0.0033199999" stop-opacity="1" />
			<stop stop-color="rgb(137,60,216)" offset="1" stop-opacity="1" />
		</linearGradient>
		<filter id="pixso_custom_mask_type_luminance">
			<feColorMatrix type="matrix" values="1 0 0 0 0 0 1 0 0 0 0 0 1 0 0 0 0 0 1 0 " />
		</filter>
	</defs>
	<rect id="google-play-1b282a5faa8753db97e49dd35e98dd25 1" width="168.000000" height="50.000000" x="0.000000" y="0.000000" fill="rgb(255,255,255)" fill-opacity="0" />
	<g id="Group">
		<path id="Vector" d="M163.8 0L4.2 0C1.8804 0 0 1.86548 0 4.16667L0 45.8333C0 48.1345 1.8804 50 4.2 50L163.8 50C166.12 50 168 48.1345 168 45.8333L168 4.16667C168 1.86548 166.12 0 163.8 0Z" fill="rgb(21.25,21.25,21.25)" fill-rule="evenodd" />
		<g id="Group">
			<path id="Vector" d="M34.944 20.293L16.2862 10.0707C15.757 9.78325 15.2698 9.7138 14.875 9.8388L30.156 25.061L34.944 20.2902" fill="url(#paint_linear_0)" fill-rule="nonzero" />
			<path id="Vector" d="M34.9678 29.8583L41.3378 26.3694C42.6286 25.6583 42.6286 24.5028 41.3378 23.7944L34.944 20.2944L30.156 25.0639L34.9678 29.8583Z" fill="url(#paint_linear_1)" fill-rule="evenodd" />
			<path id="Vector" d="M14.875 9.83887C14.3052 10.0139 13.937 10.5889 13.937 11.45L13.9426 38.7083C13.9426 39.5639 14.2982 40.1278 14.8498 40.3166L30.156 25.0639L14.875 9.83887Z" fill="url(#paint_linear_2)" fill-rule="nonzero" />
			<path id="Vector" d="M14.8499 40.3197C15.2475 40.453 15.7459 40.3891 16.2863 40.0947L34.9651 29.8586L30.1561 25.0669L14.8499 40.3197Z" fill="url(#paint_linear_3)" fill-rule="nonzero" />
		</g>
		<g id="Group">
			<path id="Vector" d="M57.3609 8.44043C58.5368 8.44043 59.3517 8.96543 59.8809 9.50293L59.0548 10.4238C58.6292 10.014 58.163 9.7321 57.3748 9.7321C55.8741 9.7321 54.8661 10.8849 54.8661 12.7654C54.8661 14.6738 55.7705 15.8265 57.4645 15.8265C57.9306 15.8265 58.3955 15.6988 58.6684 15.4543L58.6684 13.6488L57.0752 13.6488L57.0752 12.4349L60.0111 12.4349L60.0111 16.121C59.43 16.6585 58.4347 17.1182 57.2839 17.1182C55.0326 17.1182 53.326 15.5835 53.326 12.8057C53.326 10.0654 55.0844 8.44043 57.3581 8.44043M65.5732 13.264C65.5732 12.2668 65.149 11.6668 64.2824 11.6668C63.5321 11.6668 62.8853 12.2154 62.7565 13.264L65.5732 13.264ZM64.2432 10.5279C65.9624 10.5279 66.8682 11.7543 66.8682 13.5071C66.8682 13.7904 66.8402 14.0446 66.8038 14.1988L62.7691 14.1988C62.8951 15.3377 63.6231 15.9793 64.6451 15.9793C65.1854 15.9793 65.6503 15.8127 66.1151 15.5182L66.619 16.439C66.0128 16.8349 65.2513 17.1168 64.4491 17.1168C62.6892 17.1168 61.32 15.9015 61.32 13.8279C61.3214 11.7779 62.7565 10.5279 64.2432 10.5279ZM68.3173 11.8446L67.4142 11.8446L67.4142 10.7446L68.397 10.6807L68.579 8.96404L69.8195 8.96404L69.8195 10.6807L71.4351 10.6807L71.4351 11.8446L69.8195 11.8446L69.8195 14.839C69.8195 15.5807 70.1022 15.939 70.7113 15.939C70.9311 15.939 71.19 15.8752 71.3692 15.8002L71.6297 16.8863C71.2796 17.0015 70.84 17.1168 70.336 17.1168C68.8618 17.1168 68.3201 16.1946 68.3201 14.839L68.3201 11.8446L68.3173 11.8446Z" fill="rgb(231,231,231)" fill-rule="evenodd" />
			<g id="Mask group" mask="url(#mask_4)">
				<path id="Vector" d="M75.4208 10.6806L76.9076 10.6806L76.9076 16.9639L75.4208 16.9639L75.4208 10.6806ZM75.2528 8.74728C75.2528 8.24728 75.6406 7.90283 76.1698 7.90283C76.7018 7.90283 77.0868 8.25005 77.0868 8.74728C77.0868 9.23339 76.7004 9.58061 76.1684 9.58061C75.6364 9.58061 75.25 9.23339 75.25 8.74728L75.2528 8.74728ZM79.03 11.8445L78.1242 11.8445L78.1242 10.7445L79.1084 10.6806L79.2904 8.96394L80.5308 8.96394L80.5308 10.6806L82.1464 10.6806L82.1464 11.8445L80.5308 11.8445L80.5308 14.8389C80.5308 15.5806 80.8136 15.9389 81.4226 15.9389C81.6438 15.9389 81.9014 15.8751 82.0834 15.8001L82.3424 16.8862C81.9924 17.0014 81.5528 17.1167 81.0488 17.1167C79.5746 17.1167 79.0328 16.1945 79.0328 14.8389L79.0328 11.8445L79.03 11.8445ZM88.7292 15.9139C89.6616 15.9139 90.23 15.0806 90.23 13.8278C90.23 12.5612 89.6616 11.7306 88.7292 11.7306C87.7982 11.7306 87.2452 12.5612 87.2452 13.8278C87.2452 15.082 87.7982 15.9139 88.7292 15.9139ZM88.7292 10.5251C90.3196 10.5251 91.756 11.7292 91.756 13.8278C91.756 15.9139 90.3196 17.1195 88.7292 17.1195C87.1514 17.1195 85.7192 15.9139 85.7192 13.8278C85.7192 11.7306 87.1514 10.5264 88.7292 10.5264M93.233 10.6806L94.4608 10.6806L94.5644 11.5251L94.6148 11.5251C95.1846 10.9751 95.8328 10.5251 96.698 10.5251C98.056 10.5251 98.6496 11.4348 98.6496 13.0223L98.6496 16.9639L97.1628 16.9639L97.1628 13.2139C97.1628 12.1764 96.8688 11.7945 96.1688 11.7945C95.6116 11.7945 95.2504 12.0612 94.7184 12.5723L94.7184 16.9639L93.2344 16.9639L93.2344 10.6806L93.233 10.6806Z" fill="rgb(231,231,231)" fill-rule="evenodd" />
			</g>
			<g id="Mask group" mask="url(#mask_5)">
				<path id="Vector" d="M127.498 29.7529C126.442 29.7529 125.678 30.0445 125.206 30.6237C124.734 31.2015 124.492 32.1237 124.478 33.3876L124.478 33.7348C124.478 35.1709 124.72 36.1987 125.206 36.8209C125.689 37.4404 126.466 37.7515 127.537 37.7515C128.43 37.7515 129.133 37.3904 129.637 36.6751C130.145 35.9612 130.397 34.9723 130.397 33.714C130.397 32.439 130.145 31.4584 129.636 30.7765C129.132 30.0932 128.418 29.7515 127.497 29.7515M127.725 39.0473C127.05 39.0473 126.437 38.9251 125.88 38.6793C125.32 38.4311 124.836 38.0394 124.48 37.5445L124.363 37.5445C124.44 38.1418 124.478 38.7084 124.478 39.2432L124.478 43.457L122.913 43.457L122.913 28.6251L124.187 28.6251L124.403 30.0251L124.478 30.0251C124.881 29.464 125.349 29.0626 125.887 28.8112C126.464 28.5544 127.092 28.4273 127.725 28.439C129.097 28.439 130.155 28.9015 130.903 29.8279C131.645 30.7557 132.017 32.0598 132.017 33.7348C132.017 35.4154 131.639 36.7209 130.883 37.6515C130.123 38.582 129.072 39.0473 127.725 39.0473ZM135.646 38.8612L134.078 38.8612L134.078 24.3279L135.646 24.3279L135.646 38.8612ZM141.114 37.7695C142.09 37.7695 142.857 37.5057 143.41 36.9779C143.968 36.4459 144.246 35.7043 144.246 34.7515L144.246 33.8307L142.678 33.8945C141.432 33.939 140.536 34.1307 139.987 34.4695C139.436 34.8084 139.161 35.339 139.161 36.0529C139.161 36.6126 139.329 37.039 139.675 37.3307C140.018 37.6251 140.497 37.7695 141.114 37.7695ZM144.651 38.8626L144.343 37.407L144.266 37.407C143.748 38.0501 143.234 38.4834 142.72 38.7084C142.209 38.9348 141.568 39.0487 140.802 39.0487C139.776 39.0487 138.972 38.7876 138.39 38.2654C137.808 37.7432 137.516 37.0015 137.516 36.0334C137.516 33.9668 139.185 32.8807 142.528 32.7834L144.283 32.7279L144.283 32.089C144.283 31.289 144.108 30.6945 143.758 30.3112C143.408 29.9293 142.848 29.7376 142.082 29.7376C141.221 29.7376 140.248 30.0015 139.16 30.5223L138.677 29.3348C139.187 29.0626 139.745 28.8487 140.351 28.6904C140.949 28.5367 141.563 28.4587 142.18 28.4584C143.412 28.4584 144.325 28.7279 144.92 29.2709C145.513 29.8126 145.811 30.6793 145.811 31.8751L145.811 38.8612L144.649 38.8612L144.651 38.8626ZM146.723 28.6251L148.403 28.6251L150.668 34.464C151.162 35.7973 151.473 36.7584 151.592 37.3501L151.666 37.3501C151.75 37.0307 151.918 36.489 152.184 35.7182C152.443 34.9501 153.296 32.5834 154.742 28.6237L156.422 28.6237L151.98 40.2807C151.537 41.4334 151.024 42.2501 150.434 42.7334C149.846 43.2168 149.124 43.4557 148.27 43.4557C147.791 43.4557 147.318 43.4001 146.853 43.2959L146.853 42.0529C147.199 42.1307 147.587 42.1668 148.015 42.1668C149.089 42.1668 149.856 41.5668 150.315 40.3751L150.895 38.9168L146.723 28.6209L146.723 28.6251ZM97.7984 35.014C98.2968 34.5195 98.3402 33.839 98.3402 33.4515C98.3402 31.9098 97.4092 29.5112 95.6144 29.5112C95.0516 29.5112 94.4454 29.7918 94.0996 30.2195C93.7314 30.6682 93.6236 31.2473 93.6236 31.8029C93.6236 33.2376 94.4692 35.6168 96.3284 35.6168C96.8768 35.6036 97.4007 35.3888 97.7984 35.014ZM97.1726 39.0834C97.0004 39.0612 96.8926 39.0612 96.677 39.0612C96.481 39.0612 95.312 39.1029 94.4048 39.4084C93.9288 39.5751 92.5428 40.0918 92.5428 41.6098C92.5428 43.1279 94.038 44.2209 96.3508 44.2209C98.4284 44.2209 99.5316 43.2376 99.5316 41.9098C99.5316 40.8154 98.8176 40.239 97.174 39.0834L97.1726 39.0834ZM98.7084 29.5765C99.2082 29.982 100.244 30.8404 100.244 32.4654C100.244 34.0515 99.3342 34.8015 98.4284 35.507C98.1484 35.782 97.8208 36.0876 97.8208 36.5584C97.8208 37.0279 98.147 37.2848 98.385 37.4779L99.1648 38.0751C100.117 38.8709 100.981 39.5973 100.981 41.0751C100.981 43.089 99.0094 45.1237 95.291 45.1237C92.155 45.1237 90.643 43.6432 90.643 42.0598C90.643 41.2876 91.028 40.1987 92.309 39.4459C93.6474 38.632 95.466 38.5265 96.439 38.4598C96.1338 38.0765 95.7894 37.6682 95.7894 37.0084C95.7894 36.6404 95.8972 36.4251 96.005 36.1682C95.767 36.1904 95.529 36.2098 95.312 36.2098C93.0216 36.2098 91.7238 34.5182 91.7238 32.8487C91.7238 31.8654 92.1774 30.7723 93.107 29.9807C94.339 28.9751 95.809 28.8029 96.9808 28.8029L101.437 28.8029L100.051 29.5737L98.7098 29.5737L98.7084 29.5765ZM87.7884 37.0098C88.3064 36.3265 88.4366 35.4682 88.4366 34.6348C88.4366 32.7543 87.5336 29.1626 84.8526 29.1626C84.1414 29.1626 83.4288 29.4404 82.9108 29.8904C82.0708 30.6404 81.9168 31.5807 81.9168 32.5015C81.9168 34.6168 82.9752 38.1015 85.589 38.1015C86.429 38.1015 87.297 37.6945 87.7898 37.0112M85.092 38.7445C81.6592 38.7445 79.8238 36.0918 79.8238 33.6959C79.8238 30.8973 82.1338 28.5015 85.4168 28.5015C88.5906 28.5015 90.5786 30.9598 90.5786 33.5487C90.5786 36.0709 88.613 38.7432 85.0906 38.7432M76.0844 37.0098C76.6024 36.3265 76.7312 35.4682 76.7312 34.6348C76.7312 32.7543 75.824 29.1626 73.1472 29.1626C72.4332 29.1626 71.7192 29.4404 71.204 29.8904C70.3584 30.6404 70.21 31.5807 70.21 32.5015C70.21 34.6168 71.267 38.1015 73.8808 38.1015C74.7236 38.1015 75.586 37.6945 76.0844 37.0112M73.3852 38.7445C69.9496 38.7445 68.1128 36.0918 68.1128 33.6959C68.1128 30.8973 70.4256 28.5015 73.7086 28.5015C76.8838 28.5015 78.8704 30.9598 78.8704 33.5487C78.8704 36.0709 76.9062 38.7432 73.3866 38.7432M66.4622 38.407L63.3598 39.1154C62.0956 39.3098 60.9658 39.4793 59.7758 39.4793C53.7838 39.4793 51.5018 35.1182 51.5018 31.7015C51.5018 27.5307 54.7358 23.6626 60.2742 23.6626C61.3965 23.6646 62.5134 23.8159 63.595 24.1126C65.2246 24.5654 65.9848 25.1237 66.4608 25.4459L64.659 27.1432L63.9002 27.3154L64.4434 26.4543C63.7042 25.7459 62.3574 24.4348 59.7954 24.4348C56.3654 24.4348 53.7824 27.0182 53.7824 30.7779C53.7824 34.8168 56.7322 38.6223 61.4656 38.6223C62.8572 38.6223 63.5726 38.3404 64.2236 38.0834L64.2236 34.6251L60.9476 34.7959L62.6836 33.8682L67.2868 33.8682L66.7212 34.4098C66.5672 34.5376 66.5462 34.5793 66.5042 34.7529C66.4818 34.9445 66.4594 35.5695 66.4594 35.7807L66.4594 38.4057L66.4622 38.407Z" fill="rgb(255,255,255)" fill-rule="evenodd" />
			</g>
			<g id="Mask group" mask="url(#mask_6)">
				<path id="Vector" d="M105.571 37.7877C104.854 37.7224 104.703 37.596 104.703 36.7543L104.703 24.5905L104.717 24.4516C104.804 23.6988 105.02 23.571 105.697 23.1821L102.589 23.1821L100.96 23.9599L102.619 23.9599L102.619 37.2266C102.619 37.6571 102.535 37.7224 102.033 38.3655L105.876 38.3655L106.681 37.8974C106.312 37.8502 105.942 37.8307 105.573 37.7863M112.379 31.621C112.79 31.4738 113.004 31.3432 113.004 31.0474C113.004 30.1946 112.034 29.2113 110.869 29.2113C110.005 29.2113 108.391 29.8738 108.391 32.1794C108.391 32.5405 108.433 32.9252 108.457 33.3085L112.377 31.6196L112.379 31.621ZM114.409 37.9849C114.171 38.1099 113.933 38.2627 113.698 38.3669C112.984 38.6905 112.251 38.7738 111.602 38.7738C110.916 38.7738 109.836 38.7294 108.737 37.9405C107.205 36.8738 106.539 35.0377 106.539 33.4363C106.539 30.1266 109.257 28.5057 111.476 28.5057C112.252 28.5057 113.05 28.7002 113.7 29.103C114.775 29.8071 115.055 30.7238 115.206 31.2169L110.141 33.2446L108.479 33.3738C109.018 36.0821 110.873 37.6627 112.921 37.6627C114.022 37.6627 114.82 37.278 115.553 36.9169L114.411 37.9863L114.409 37.9849ZM116.488 28.653L116.488 30.0613L116.315 30.0613L116.315 28.653L115.844 28.653L115.844 28.5071L116.96 28.5071L116.96 28.653L116.488 28.653ZM118.427 30.0613L118.427 28.6391L118.423 28.6391L117.982 30.0613L117.846 30.0613L117.404 28.6405L117.4 28.6405L117.4 30.0627L117.24 30.0627L117.24 28.5071L117.51 28.5071L117.911 29.7655L117.914 29.7655L118.308 28.5085L118.58 28.5085L118.58 30.0641L118.426 30.0641L118.427 30.0613Z" fill="rgb(255,255,255)" fill-rule="evenodd" />
			</g>
		</g>
	</g>
</svg>
