<svg viewBox="0 0 150 150" xmlns="http://www.w3.org/2000/svg" xmlns:xlink="http://www.w3.org/1999/xlink" width="150.000000" height="150.000000" fill="none" customFrame="#000000">
	<g id="Group 7">
		<circle id="Ellipse 2" cx="75" cy="75" r="75" fill="rgb(255,255,255)" />
		<circle id="Ellipse 2" cx="75" cy="75" r="74.5" stroke="rgb(0,102,255)" stroke-width="1.000000" />
		<g id="Group 6">
			<path id="Vector" d="M82.9967 61.1969C82.7371 61.0464 82.4501 60.9488 82.1525 60.9097C81.8549 60.8707 81.5525 60.8909 81.2627 60.9693C80.9729 61.0476 80.7016 61.1826 80.4643 61.3663C80.227 61.5501 80.0284 61.779 79.8801 62.0398L66.7901 84.6882C66.6395 84.9477 66.5419 85.2345 66.5028 85.532C66.4637 85.8295 66.4839 86.1317 66.5623 86.4213C66.6407 86.711 66.7758 86.9822 66.9596 87.2194C67.1434 87.4565 67.3724 87.655 67.6334 87.8032C67.9748 88.0115 68.3705 88.1135 68.7701 88.0964C69.1703 88.0947 69.5632 87.9891 69.9103 87.79C70.2574 87.5908 70.5468 87.3049 70.7501 86.9603L83.8401 64.312C83.9957 64.0537 84.0974 63.7667 84.1392 63.4681C84.181 63.1696 84.1619 62.8657 84.0831 62.5747C84.0043 62.2837 83.8675 62.0116 83.6808 61.7748C83.4941 61.5381 83.2614 61.3415 82.9967 61.1969ZM72.9501 68.7464C73.0297 66.6587 72.2803 64.6243 70.8654 63.0865C69.4505 61.5488 67.4848 60.6324 65.3967 60.5372C63.3055 60.6325 61.3362 61.5476 59.9154 63.0842C58.4947 64.6209 57.737 66.6552 57.8067 68.7464C57.7272 70.8437 58.4804 72.8875 59.9021 74.4321C61.3239 75.9767 63.299 76.8969 65.3967 76.9921C67.4914 76.897 69.4629 75.9756 70.8788 74.4298C72.2947 72.8841 73.0396 70.8402 72.9501 68.7464ZM65.3967 72.4111C64.5178 72.3095 63.7128 71.8704 63.1518 71.1866C62.5908 70.5027 62.3176 69.6277 62.3901 68.7464C62.308 67.863 62.5777 66.9829 63.1405 66.2969C63.7033 65.6109 64.514 65.1742 65.3967 65.0816C66.2768 65.1739 67.0841 65.6119 67.6411 66.2992C68.1981 66.9865 68.4591 67.8667 68.3667 68.7464C68.4493 69.624 68.1847 70.4991 67.6295 71.1841C67.0744 71.8692 66.2729 72.3096 65.3967 72.4111ZM85.2701 72.008C83.182 72.1032 81.2163 73.0196 79.8014 74.5573C78.3865 76.0951 77.6372 78.1295 77.7167 80.2171C77.6272 82.311 78.3721 84.3548 79.788 85.9006C81.204 87.4463 83.1754 88.3678 85.2701 88.4629C87.3679 88.3677 89.3429 87.4475 90.7647 85.9029C92.1865 84.3582 92.9397 82.3145 92.8601 80.2171C92.9298 78.126 92.1721 76.0917 90.7514 74.555C89.3307 73.0184 87.3613 72.1033 85.2701 72.008ZM85.2701 83.8819C84.394 83.7804 83.5925 83.3399 83.0373 82.6549C82.4822 81.9699 82.2175 81.0948 82.3001 80.2171C82.2175 79.3395 82.4822 78.4644 83.0373 77.7794C83.5925 77.0943 84.394 76.6539 85.2701 76.5524C86.1528 76.645 86.9635 77.0816 87.5263 77.7677C88.0892 78.4537 88.3588 79.3338 88.2767 80.2171C88.3492 81.0985 88.0761 81.9735 87.515 82.6574C86.954 83.3412 86.149 83.7803 85.2701 83.8819Z" fill="rgb(0,102,255)" fill-rule="nonzero" />
			<path id="Vector" d="M72.9558 68.4447C72.9558 68.5451 72.9539 68.6457 72.9501 68.7464C72.9549 68.8593 72.9573 68.9721 72.9573 69.0846C72.9573 71.0592 72.2184 72.9674 70.8788 74.4298C69.4629 75.9756 67.4914 76.897 65.3967 76.9921C63.299 76.8969 61.3239 75.9767 59.9021 74.4321C58.5486 72.9616 57.801 71.0388 57.801 69.048C57.801 68.9476 57.8029 68.847 57.8067 68.7464C57.8038 68.6579 57.8023 68.5695 57.8023 68.4813C57.8023 66.484 58.5548 64.5559 59.9154 63.0842C61.3362 61.5476 63.3055 60.6325 65.3967 60.5372C67.4848 60.6324 69.4505 61.5488 70.8654 63.0865C72.2121 64.5501 72.9558 66.4636 72.9558 68.4447ZM82.1525 60.9097C82.4501 60.9488 82.7371 61.0464 82.9967 61.1969C83.2614 61.3415 83.4941 61.5381 83.6808 61.7748C83.8675 62.0116 84.0043 62.2837 84.0831 62.5747C84.1348 62.7655 84.1608 62.9618 84.1608 63.1586C84.1608 63.2619 84.1536 63.3653 84.1392 63.4681C84.0974 63.7667 83.9957 64.0537 83.8401 64.312L70.7501 86.9603C70.5468 87.3049 70.2574 87.5908 69.9103 87.79C69.5632 87.9891 69.1703 88.0947 68.7701 88.0964C68.3705 88.1135 67.9748 88.0115 67.6334 87.8032C67.3724 87.655 67.1434 87.4565 66.9596 87.2194C66.7758 86.9822 66.6407 86.711 66.5623 86.4213C66.5098 86.2274 66.4834 86.0279 66.4834 85.8279C66.4834 85.7291 66.4899 85.6303 66.5028 85.532C66.5419 85.2345 66.6395 84.9477 66.7901 84.6882L79.8801 62.0398C80.0284 61.779 80.227 61.5501 80.4643 61.3663C80.7016 61.1826 80.9729 61.0476 81.2627 60.9693C81.5525 60.8909 81.8549 60.8707 82.1525 60.9097ZM71.9566 68.4071Q71.9566 67.1543 71.5506 66.0507L71.5506 66.0507Q71.0953 64.8133 70.1295 63.7636Q69.1656 62.716 67.9727 62.1593L67.9726 62.1592L67.9725 62.1592Q66.796 61.6101 65.3967 61.5384Q63.9947 61.6102 62.8146 62.1591L62.8146 62.1591Q61.618 62.7158 60.6497 63.7631Q59.6795 64.8124 59.2187 66.0513Q58.8017 67.172 58.8017 68.4478Q58.8017 68.5796 58.8062 68.713L58.8074 68.7487L58.806 68.7843Q58.8003 68.936 58.8003 69.0856Q58.8003 70.3459 59.2088 71.4558L59.2089 71.4559Q59.6668 72.6998 60.6379 73.7548Q61.6072 74.8079 62.8067 75.3674Q63.9897 75.9192 65.3967 75.991Q66.801 75.9193 67.9805 75.3673Q69.1765 74.8077 70.1414 73.7543Q71.1081 72.699 71.5605 71.4564Q71.9583 70.3637 71.9583 69.1262Q71.9583 68.9589 71.951 68.7891L71.9493 68.7487L71.9508 68.7083Q71.9566 68.5566 71.9566 68.4071ZM82.2675 61.9582L82.2674 61.9582Q82.1489 61.9179 82.0223 61.9012Q81.896 61.8846 81.7713 61.893Q81.6467 61.9013 81.5238 61.9346Q81.4004 61.968 81.2882 62.0238L81.2881 62.0239Q81.1768 62.0794 81.0765 62.157C80.9423 62.2609 80.8332 62.3866 80.7494 62.5341L67.6559 85.1886Q67.5863 85.3086 67.5446 85.4376Q67.5094 85.5467 67.4943 85.6623C67.4869 85.7182 67.4832 85.7739 67.4832 85.8293C67.4832 85.9406 67.498 86.0508 67.5276 86.16C67.5719 86.3237 67.646 86.4727 67.75 86.6068C67.854 86.7409 67.9797 86.8499 68.1274 86.9337L68.1409 86.9414L68.1541 86.9495C68.3302 87.0569 68.5212 87.1062 68.7273 87.0973L68.7466 87.0965L68.7658 87.0964C68.9968 87.0955 69.2124 87.0375 69.4126 86.9226Q69.5629 86.8364 69.682 86.7186L69.6826 86.7181L69.6827 86.718Q69.8012 86.6007 69.8888 86.4522L82.9743 63.8116C83.0674 63.6569 83.1255 63.4962 83.1489 63.3296Q83.161 63.243 83.161 63.1571Q83.161 63.1192 83.1586 63.0813Q83.1509 62.9579 83.1179 62.836Q83.085 62.7146 83.0297 62.6045L83.0297 62.6044Q82.974 62.4935 82.8955 62.394C82.7913 62.2618 82.6652 62.1553 82.5174 62.0745L82.5063 62.0684L82.4954 62.0621Q82.3854 61.9984 82.2675 61.9582ZM65.2819 73.4045Q64.3951 73.302 63.6689 72.9055Q62.9438 72.5097 62.3787 71.8208Q61.8127 71.131 61.5664 70.3414Q61.3767 69.7332 61.3767 69.0658Q61.3767 68.9103 61.387 68.7516Q61.3732 68.5689 61.3732 68.3904Q61.3732 67.7433 61.5543 67.1517L61.5543 67.1517Q61.7975 66.3572 62.3674 65.6626Q62.9363 64.9691 63.6669 64.5753Q64.3986 64.1808 65.2924 64.087L65.3968 64.0761L65.5011 64.087Q66.3949 64.1808 67.1246 64.577L67.1246 64.577Q67.8532 64.9726 68.418 65.6696Q68.9837 66.3676 69.2195 67.1634Q69.3879 67.732 69.3879 68.3506Q69.3879 68.5486 69.3707 68.7518Q69.384 68.9308 69.384 69.1059Q69.384 69.7446 69.2071 70.3298L69.2071 70.3298Q68.9682 71.1206 68.4064 71.8138Q67.8455 72.5059 67.1227 72.9035L67.1226 72.9035Q66.3985 73.3017 65.5119 73.4045L65.3969 73.4178L65.2819 73.4045ZM63.1518 71.1866C63.7128 71.8704 64.5178 72.3095 65.3967 72.4111C66.2729 72.3096 67.0744 71.8692 67.6295 71.1841C68.118 70.5814 68.3816 69.8314 68.3816 69.0621C68.3816 68.9571 68.3767 68.8517 68.3667 68.7464C68.3789 68.6302 68.385 68.514 68.385 68.3982C68.385 67.6375 68.1245 66.8957 67.6411 66.2992C67.0841 65.6119 66.2768 65.1739 65.3967 65.0816C64.514 65.1742 63.7033 65.6109 63.1405 66.2969C62.644 66.9021 62.3756 67.6583 62.3756 68.4346C62.3756 68.5383 62.3804 68.6423 62.3901 68.7464C62.3824 68.8396 62.3786 68.9327 62.3786 69.0256C62.3786 69.8107 62.6501 70.5751 63.1518 71.1866ZM79.8014 74.5573C81.2163 73.0196 83.182 72.1032 85.2701 72.008C87.3613 72.1033 89.3307 73.0184 90.7514 74.555C92.112 76.0267 92.8645 77.9548 92.8645 79.9521C92.8645 80.0403 92.863 80.1287 92.8601 80.2171C92.8639 80.3178 92.8658 80.4184 92.8658 80.5188C92.8658 82.5096 92.1182 84.4324 90.7647 85.9029C89.3429 87.4475 87.3679 88.3677 85.2701 88.4629C83.1754 88.3678 81.204 87.4463 79.788 85.9006C78.4485 84.4382 77.7095 82.53 77.7095 80.5554C77.7095 80.4428 77.7119 80.3301 77.7167 80.2171C77.7129 80.1164 77.711 80.0159 77.711 79.9155C77.711 77.9344 78.4547 76.0209 79.8014 74.5573ZM85.2701 73.0092Q83.8708 73.0809 82.6943 73.63Q81.5012 74.1868 80.5373 75.2344Q79.5715 76.2841 79.1162 77.5216Q78.7102 78.6251 78.7102 79.8779Q78.7102 80.0274 78.716 80.179L78.7176 80.2195L78.7158 80.2599Q78.7086 80.4297 78.7086 80.5969Q78.7086 81.8343 79.1063 82.927L79.1063 82.9271L79.1064 82.9272Q79.5587 84.1698 80.5254 85.2251Q81.4903 86.2785 82.6863 86.8381Q83.8658 87.3901 85.2701 87.4617C87.1591 87.3654 88.7454 86.62 90.0289 85.2256C91.254 83.8947 91.8665 82.3383 91.8665 80.5564Q91.8665 80.4068 91.8608 80.2551L91.8594 80.2194L91.8606 80.1838C91.8636 80.0949 91.8651 80.0065 91.8651 79.9186C91.8651 78.1279 91.2491 76.5663 90.0172 75.2339Q89.0489 74.1866 87.8523 73.63L87.8522 73.6299Q86.6722 73.0809 85.2701 73.0092ZM85.155 84.8753Q84.2685 84.7726 83.5445 84.3744L83.5443 84.3743L83.5441 84.3742Q82.8213 83.9766 82.2604 83.2845C81.6087 82.4804 81.2828 81.5778 81.2828 80.5767C81.2828 80.4582 81.2874 80.3384 81.2965 80.2171Q81.2828 80.0353 81.2828 79.8576Q81.2828 79.2189 81.4597 78.6337L81.4597 78.6337Q81.6986 77.8429 82.2604 77.1497Q82.8212 76.4577 83.544 76.0601L83.5442 76.06Q84.2683 75.6618 85.155 75.559L85.2646 75.5463L85.3744 75.5578Q86.2682 75.6516 87 76.0461L87 76.0461Q87.7305 76.4399 88.2994 77.1334Q88.8692 77.8278 89.1124 78.6222L89.1125 78.6225L89.1125 78.6226Q89.2936 79.2141 89.2936 79.8612Q89.2936 80.0397 89.2798 80.2224C89.2867 80.3282 89.2901 80.433 89.2901 80.5366C89.2901 81.5591 88.9561 82.4775 88.2881 83.2916Q87.723 83.9805 86.9979 84.3763Q86.2717 84.7728 85.3849 84.8753L85.27 84.8886L85.155 84.8753ZM83.0373 82.6549C83.5925 83.3399 84.394 83.7804 85.2701 83.8819C86.149 83.7803 86.954 83.3412 87.515 82.6574C88.0167 82.0459 88.2882 81.2815 88.2882 80.4964C88.2882 80.4035 88.2844 80.3104 88.2767 80.2171C88.2864 80.1131 88.2912 80.0091 88.2912 79.9054C88.2912 79.1291 88.0229 78.3729 87.5263 77.7677C86.9635 77.0816 86.1528 76.645 85.2701 76.5524C84.394 76.6539 83.5925 77.0943 83.0373 77.7794C82.5488 78.3821 82.2853 79.132 82.2853 79.9014C82.2853 80.0064 82.2902 80.1117 82.3001 80.2171C82.2902 80.3225 82.2853 80.4279 82.2853 80.5329C82.2853 81.3022 82.5488 82.0522 83.0373 82.6549Z" fill="rgb(0,102,255)" fill-rule="evenodd" />
			<path id="Vector" d="M75.3333 47.0141C67.7984 46.777 60.4772 49.5382 54.9774 54.6916C49.4776 59.845 46.2489 66.9693 46 74.5C46.2489 82.0307 49.4776 89.155 54.9774 94.3084C60.4772 99.4618 67.7984 102.223 75.3333 101.986C82.8683 102.223 90.1895 99.4618 95.6892 94.3084C101.189 89.155 104.418 82.0307 104.667 74.5C104.418 66.9693 101.189 59.845 95.6892 54.6916C90.1895 49.5382 82.8683 46.777 75.3333 47.0141ZM75.3333 97.4049C69.0163 97.633 62.866 95.3513 58.2278 91.0589C53.5895 86.7664 50.841 80.8127 50.5833 74.5C50.841 68.1873 53.5895 62.2336 58.2278 57.9411C62.866 53.6487 69.0163 51.367 75.3333 51.5951C81.6504 51.367 87.8007 53.6487 92.4389 57.9411C97.0771 62.2336 99.8257 68.1873 100.083 74.5C99.8257 80.8127 97.0771 86.7664 92.4389 91.0589C87.8007 95.3513 81.6504 97.633 75.3333 97.4049Z" fill="rgb(0,102,255)" fill-rule="nonzero" />
			<path id="Vector" d="M54.9774 54.6916C60.4772 49.5382 67.7984 46.777 75.3333 47.0141C82.8683 46.777 90.1895 49.5382 95.6892 54.6916C101.189 59.845 104.418 66.9693 104.667 74.5C104.418 82.0307 101.189 89.155 95.6892 94.3084C90.1895 99.4618 82.8683 102.223 75.3333 101.986C67.7984 102.223 60.4772 99.4618 54.9774 94.3084C49.4776 89.155 46.2489 82.0307 46 74.5C46.2489 66.9693 49.4776 59.845 54.9774 54.6916ZM75.3019 48.0136Q72.5734 47.9277 69.9321 48.3669L69.9318 48.3669L69.9317 48.3669Q67.2949 48.8054 64.7451 49.7671Q62.187 50.7319 59.9112 52.1499L59.9112 52.15L59.9112 52.15Q57.6463 53.5612 55.6612 55.4213Q53.6665 57.2904 52.1061 59.4703L52.1057 59.4709Q50.5531 61.6401 49.4304 64.1171Q48.3036 66.6033 47.6958 69.2106L47.6958 69.2106L47.6958 69.2107L47.6957 69.2108Q47.0931 71.7959 47.0006 74.5Q47.0931 77.2041 47.6958 79.7893L47.6958 79.7895L47.6958 79.7896L47.6959 79.7899Q48.3037 82.3969 49.4304 84.8829Q50.553 87.3598 52.1056 89.529L52.1057 89.5291L52.1057 89.5292L52.1059 89.5293Q53.6663 91.7095 55.6612 93.5787C58.3144 96.0648 61.3424 97.9495 64.7451 99.2329Q67.295 100.195 69.932 100.633Q72.5733 101.072 75.3019 100.986L75.3333 100.985L75.3648 100.986Q78.0934 101.072 80.7347 100.633Q83.3716 100.195 85.9216 99.2329C89.3243 97.9495 92.3522 96.0648 95.0055 93.5787Q97.0002 91.7095 98.5607 89.5295L98.5607 89.5294L98.5608 89.5293Q100.114 87.36 101.236 84.8829Q102.363 82.3968 102.971 79.7896L102.971 79.7895L102.971 79.7893L102.971 79.7893Q103.574 77.2041 103.666 74.5Q103.574 71.7959 102.971 69.2108L102.971 69.2107Q102.363 66.6034 101.236 64.1171Q100.114 61.6401 98.5609 59.4709L98.5609 59.4708L98.5609 59.4708Q97.0004 57.2906 95.0055 55.4213Q93.0203 53.5612 90.7555 52.15L90.7554 52.1499Q88.4797 50.7319 85.9216 49.7671Q83.3718 48.8054 80.735 48.3669L80.7349 48.3669Q78.0935 47.9277 75.3648 48.0136L75.3333 48.0146L75.3019 48.0136ZM80.1606 98.1079Q77.7846 98.4906 75.3333 98.4055Q72.8822 98.4906 70.5064 98.1079Q68.1167 97.723 65.8032 96.8647Q63.483 96.0039 61.4154 94.7323L61.4151 94.7321L61.4129 94.7308Q59.3556 93.4651 57.5485 91.7928Q55.7321 90.1118 54.3063 88.1473L54.3062 88.1473L54.3062 88.1472Q52.8871 86.1921 51.8549 83.9562Q50.819 81.7123 50.2512 79.3557L50.2512 79.3556L50.2512 79.3555Q49.6847 77.0043 49.5842 74.5408L49.5825 74.5L49.5842 74.4592Q49.6847 71.9957 50.2512 69.6445L50.2512 69.6444L50.2512 69.6443Q50.819 67.2877 51.8549 65.0438Q52.8872 62.8078 54.3063 60.8526L54.3063 60.8526L54.3065 60.8524Q55.7323 58.8881 57.5485 57.2072Q59.3566 55.5339 61.4152 54.2678Q63.4828 52.9962 65.8032 52.1353Q68.1165 51.2771 70.5061 50.8921L70.5062 50.8921L70.5064 50.8921Q72.8822 50.5094 75.3334 50.5945Q77.7836 50.5094 80.1586 50.8918L80.1605 50.8921Q82.5501 51.2771 84.8635 52.1353Q87.1839 52.9962 89.2516 54.2679L89.2516 54.2679Q91.3101 55.534 93.1181 57.2072C95.5343 59.4432 97.4322 62.0554 98.8118 65.0438Q99.8476 67.2877 100.415 69.6444L100.415 69.6444Q100.982 71.9957 101.083 74.4592L101.084 74.5L101.083 74.5408Q100.982 77.0033 100.416 79.3537L100.415 79.3555Q99.8477 81.7122 98.8118 83.9562Q97.7795 86.1922 96.3603 88.1474Q94.9345 90.1118 93.1181 91.7928Q91.3105 93.4657 89.2525 94.7315L89.2516 94.7321L89.2515 94.7322Q87.1838 96.0038 84.8635 96.8647Q82.5502 97.7229 80.1606 98.1079ZM58.2278 91.0589C62.866 95.3513 69.0163 97.633 75.3333 97.4049C81.6504 97.633 87.8007 95.3513 92.4389 91.0589C97.0771 86.7664 99.8257 80.8127 100.083 74.5C99.8257 68.1873 97.0771 62.2336 92.4389 57.9411C87.8007 53.6487 81.6504 51.367 75.3333 51.5951C69.0163 51.367 62.866 53.6487 58.2278 57.9411C53.5895 62.2336 50.841 68.1873 50.5833 74.5C50.841 80.8127 53.5895 86.7664 58.2278 91.0589Z" fill="rgb(0,102,255)" fill-rule="evenodd" />
		</g>
	</g>
</svg>
