<svg viewBox="0 0 150 150" xmlns="http://www.w3.org/2000/svg" xmlns:xlink="http://www.w3.org/1999/xlink" width="150.000000" height="150.000000" fill="none" customFrame="#000000">
	<g id="Group 8">
		<path id="Ellipse 3" d="M0 75C0 33.5786 33.5786 0 75 0C116.421 0 150 33.5786 150 75C150 95.7107 141.605 114.461 128.033 128.033C114.461 141.605 95.7107 150 75 150C33.5786 150 0 116.421 0 75Z" fill="rgb(255,255,255)" fill-rule="evenodd" />
		<path id="Ellipse 3" d="M0 75C0 33.5786 33.5786 0 75 0C116.421 0 150 33.5786 150 75C150 95.7107 141.605 114.461 128.033 128.033C114.461 141.605 95.7107 150 75 150C33.5786 150 0 116.421 0 75ZM0.999992 75Q0.999993 83.3466 2.78709 91.2913L2.78862 91.2981Q4.22502 97.6808 6.81487 103.804Q9.4476 110.028 13.0966 115.585Q17.2325 121.884 22.6741 127.326Q28.1156 132.767 34.4143 136.903Q39.9716 140.552 46.1962 143.185Q52.3171 145.774 58.6975 147.21L58.709 147.213Q66.6535 149 75 149Q83.3464 149 91.2908 147.213L91.2911 147.213L91.2913 147.213Q97.6775 145.776 103.804 143.185Q110.028 140.553 115.585 136.904L115.585 136.903Q121.884 132.768 127.326 127.326Q132.768 121.884 136.904 115.585Q140.552 110.028 143.185 103.804Q145.776 97.6775 147.213 91.2915L147.213 91.2898Q149 83.3458 149 75Q149 66.6538 147.213 58.7095L147.213 58.709Q145.776 52.3227 143.185 46.1962Q140.552 39.9716 136.903 34.4143Q132.767 28.1156 127.326 22.6741Q121.884 17.2326 115.586 13.0966L115.585 13.0966Q110.028 9.44759 103.804 6.81488Q97.6779 4.22381 91.2922 2.7873L91.2912 2.78708Q83.3466 0.999997 75 0.999992Q66.6535 0.999993 58.7089 2.78705L58.7089 2.78706L58.7087 2.7871L58.7085 2.78713Q52.3225 4.22366 46.1962 6.81487Q39.9716 9.44763 34.4144 13.0967Q28.1156 17.2326 22.6741 22.6741Q17.2327 28.1155 13.0968 34.4142Q9.44768 39.9715 6.81488 46.1962Q4.22381 52.3221 2.7873 58.7078L2.78708 58.7088L2.78706 58.7089L2.787 58.7092Q0.999997 66.6536 0.999992 75Z" fill="rgb(0,102,255)" fill-rule="evenodd" />
		<path id="Vector" d="M54.75 54C52.1641 54 49.6842 55.0272 47.8557 56.8557C46.0272 58.6842 45 61.1641 45 63.75L45 67.5L105 67.5L105 63.75C105 62.4696 104.748 61.2018 104.258 60.0188C103.768 58.8359 103.05 57.7611 102.144 56.8557C101.239 55.9503 100.164 55.2322 98.9812 54.7422C97.7982 54.2522 96.5304 54 95.25 54L54.75 54ZM105 72L45 72L45 86.25C45 88.8359 46.0272 91.3158 47.8557 93.1443C49.6842 94.9728 52.1641 96 54.75 96L95.25 96C96.5304 96 97.7982 95.7478 98.9812 95.2578C100.164 94.7678 101.239 94.0497 102.144 93.1443C103.05 92.2389 103.768 91.1641 104.258 89.9812C104.748 88.7982 105 87.5304 105 86.25L105 72ZM86.25 82.5L93.75 82.5C94.3467 82.5 94.919 82.7371 95.341 83.159C95.7629 83.581 96 84.1533 96 84.75C96 85.3467 95.7629 85.919 95.341 86.341C94.919 86.7629 94.3467 87 93.75 87L86.25 87C85.6533 87 85.081 86.7629 84.659 86.341C84.2371 85.919 84 85.3467 84 84.75C84 84.1533 84.2371 83.581 84.659 83.159C85.081 82.7371 85.6533 82.5 86.25 82.5Z" fill="rgb(0,102,255)" fill-rule="nonzero" />
		<path id="Vector" d="M47.8557 56.8557C49.6842 55.0272 52.1641 54 54.75 54L95.25 54C96.5304 54 97.7982 54.2522 98.9812 54.7422C100.164 55.2322 101.239 55.9503 102.144 56.8557C103.05 57.7611 103.768 58.8359 104.258 60.0188C104.748 61.2018 105 62.4696 105 63.75L105 67.5L45 67.5L45 63.75C45 61.1641 46.0272 58.6842 47.8557 56.8557ZM54.75 55Q52.9378 55 51.3911 55.6407L51.391 55.6407Q49.8442 56.2814 48.5628 57.5628Q47.2814 58.8442 46.6407 60.391L46.6407 60.391Q46 61.9378 46 63.75L46 66.5L104 66.5L104 63.75C104 62.5897 103.778 61.4735 103.334 60.4015C102.89 59.3295 102.258 58.3833 101.437 57.5628Q100.822 56.9475 100.112 56.4734L100.112 56.4733L100.112 56.4733L100.112 56.4732Q99.4024 55.9991 98.5985 55.6661C97.5265 55.222 96.4103 55 95.25 55L54.75 55ZM45 72L105 72L105 86.25C105 87.5304 104.748 88.7982 104.258 89.9812C103.768 91.1641 103.05 92.2389 102.144 93.1443C101.239 94.0497 100.164 94.7678 98.9812 95.2578C97.7982 95.7478 96.5304 96 95.25 96L54.75 96C52.1641 96 49.6842 94.9728 47.8557 93.1443C46.0272 91.3158 45 88.8359 45 86.25L45 72ZM104 86.25L104 73L46 73L46 86.25C46 88.6662 46.8543 90.7286 48.5628 92.4372Q49.8442 93.7186 51.391 94.3593L51.3911 94.3593Q52.9379 95 54.75 95L95.25 95C96.4103 95 97.5265 94.778 98.5985 94.3339C99.6705 93.8899 100.617 93.2577 101.437 92.4372C102.258 91.6167 102.89 90.6705 103.334 89.5985C103.778 88.5265 104 87.4103 104 86.25ZM86.25 81.5L93.75 81.5Q94.4231 81.5 94.9976 81.738Q95.5722 81.976 96.0481 82.4519C96.6827 83.0865 97 83.8525 97 84.75C97 85.6475 96.6827 86.4135 96.0481 87.0481Q95.5722 87.524 94.9976 87.762L94.9973 87.7622Q94.4229 88 93.75 88L86.25 88C85.3525 88 84.5865 87.6827 83.9519 87.0481C83.3173 86.4135 83 85.6475 83 84.75C83 83.8525 83.3173 83.0865 83.9519 82.4519C84.5865 81.8173 85.3525 81.5 86.25 81.5ZM93.75 82.5L86.25 82.5C85.6533 82.5 85.081 82.7371 84.659 83.159C84.2371 83.581 84 84.1533 84 84.75C84 85.3467 84.2371 85.919 84.659 86.341C85.081 86.7629 85.6533 87 86.25 87L93.75 87C94.3467 87 94.919 86.7629 95.341 86.341C95.7629 85.919 96 85.3467 96 84.75C96 84.1533 95.7629 83.581 95.341 83.159C94.919 82.7371 94.3467 82.5 93.75 82.5Z" fill="rgb(0,102,255)" fill-rule="evenodd" />
	</g>
</svg>
