<svg viewBox="0 0 150 150" xmlns="http://www.w3.org/2000/svg" xmlns:xlink="http://www.w3.org/1999/xlink" width="150.000000" height="150.000000" fill="none" customFrame="#000000">
	<g id="Group 5">
		<circle id="Ellipse 1" cx="75" cy="75" r="75" fill="rgb(255,255,255)" />
		<circle id="Ellipse 1" cx="75" cy="75" r="74.5" stroke="rgb(0,102,255)" stroke-width="1.000000" />
		<path id="Vector" d="M104.783 76.9643C104.333 72.0393 103.591 71.0802 103.311 70.7194C102.667 69.8858 101.637 69.341 100.547 68.7694C100.485 68.7377 100.432 68.6924 100.392 68.6371C100.351 68.5818 100.324 68.5181 100.313 68.451C100.302 68.3839 100.307 68.3151 100.328 68.2503C100.349 68.1854 100.385 68.1262 100.433 68.0772C100.635 67.8776 100.79 67.6377 100.888 67.3741C100.986 67.1105 101.024 66.8294 101 66.5501C100.953 66.0548 100.716 65.5948 100.338 65.2614C99.9592 64.928 99.4658 64.7454 98.9556 64.75L97.0053 64.75C96.9218 64.7505 96.8383 64.7558 96.7553 64.7658C96.6984 64.7418 96.6394 64.7226 96.579 64.7086C95.4239 62.3283 93.8424 59.0694 90.5644 57.4789C85.7024 55.1219 76.7461 55 74.9959 55C73.2456 55 64.2893 55.1219 59.4336 57.4753C56.1556 59.0658 54.5741 62.3247 53.4189 64.7049L53.4089 64.7244C53.3513 64.7323 53.2947 64.7462 53.2402 64.7658C53.1572 64.7558 53.0737 64.7505 52.9901 64.75L51.0361 64.75C50.5259 64.7454 50.0325 64.928 49.6539 65.2614C49.2753 65.5948 49.0391 66.0548 48.992 66.5501C48.9698 66.8288 49.0096 67.1088 49.1086 67.3711C49.2077 67.6334 49.3636 67.8717 49.5659 68.0699C49.6142 68.1188 49.6503 68.1781 49.6712 68.243C49.692 68.3078 49.6972 68.3765 49.6861 68.4437C49.6751 68.5108 49.6482 68.5745 49.6076 68.6298C49.567 68.685 49.5137 68.7303 49.4521 68.7621C48.3619 69.3374 47.3268 69.8822 46.6879 70.7121C46.4079 71.0778 45.6678 72.032 45.2165 76.957C44.9664 79.7284 44.9289 82.5974 45.1252 84.445C45.5365 88.2841 46.3079 90.6046 46.3404 90.7008C46.4588 91.0512 46.6766 91.3617 46.9687 91.5962C47.2608 91.8307 47.6152 91.9796 47.9906 92.0256L47.9906 92.05C47.9906 92.5672 48.2014 93.0632 48.5765 93.4289C48.9516 93.7946 49.4604 94 49.9909 94L56.992 94C57.5225 94 58.0312 93.7946 58.4064 93.4289C58.7815 93.0632 58.9923 92.5672 58.9923 92.05C60.0687 92.05 60.8175 91.8623 61.6114 91.6624C62.7575 91.3614 63.9291 91.1611 65.1119 91.064C68.9262 90.7094 72.7193 90.5875 74.9959 90.5875C77.2262 90.5875 81.1868 90.7094 85.0073 91.064C86.1948 91.1613 87.371 91.3624 88.5216 91.6649C89.2817 91.855 90.0031 92.0305 91.002 92.0488C91.002 92.566 91.2127 93.0619 91.5878 93.4276C91.963 93.7933 92.4717 93.9988 93.0023 93.9988L100.003 93.9988C100.534 93.9988 101.043 93.7933 101.418 93.4276C101.793 93.0619 102.004 92.566 102.004 92.0488L102.004 92.0342C102.38 91.989 102.735 91.8405 103.028 91.6059C103.321 91.3714 103.54 91.0604 103.659 90.7094C103.691 90.6131 104.463 88.2926 104.874 84.4535C105.07 82.6047 105.035 79.7406 104.783 76.9643ZM57.0345 66.3722C58.0346 64.3003 59.1785 61.9554 61.2151 60.967C64.158 59.5386 70.2577 58.8951 74.9959 58.8951C79.7341 58.8951 85.8337 59.5338 88.7766 60.967C90.8132 61.9554 91.9521 64.3015 92.9572 66.3722L93.0823 66.6366C93.1554 66.7872 93.1877 66.9535 93.1761 67.1197C93.1646 67.2859 93.1095 67.4464 93.0163 67.586C92.923 67.7256 92.7946 67.8395 92.6433 67.917C92.4921 67.9944 92.3229 68.0328 92.1521 68.0284C87.9978 67.9187 79.2465 67.5677 74.9959 67.5677C70.7452 67.5677 61.9939 67.9273 57.8333 68.037C57.6625 68.0413 57.4934 68.0029 57.3421 67.9255C57.1909 67.848 57.0625 67.7341 56.9692 67.5945C56.8759 67.455 56.8209 67.2944 56.8093 67.1282C56.7978 66.962 56.8301 66.7957 56.9032 66.6452C56.947 66.555 56.9932 66.4636 57.0345 66.3722ZM58.5259 76.0771C56.3754 76.3294 54.2111 76.4539 52.045 76.45C50.7198 76.45 49.3533 76.0844 49.0995 74.9339C48.9258 74.16 48.9445 73.7249 49.0383 73.2873C49.1171 72.9156 49.2421 72.6451 49.8672 72.55C51.4924 72.3063 52.4013 72.6122 55.0617 73.3763C56.8257 73.8821 58.0984 74.5561 58.8235 75.0899C59.1873 75.3531 58.9935 76.0405 58.5259 76.0771ZM86.2025 86.0708C84.5573 86.2536 81.2668 86.1866 75.0334 86.1866C68.7999 86.1866 65.5107 86.2536 63.8655 86.0708C62.1677 85.8868 60.0037 84.3219 61.4814 82.9277C62.4653 82.0087 64.7606 81.3213 67.8173 80.935C70.874 80.5487 72.1679 80.35 75.0209 80.35C77.8738 80.35 79.0365 80.4719 82.2244 80.9362C85.4124 81.4006 87.8215 82.0965 88.5603 82.9289C89.9081 84.4206 87.899 85.877 86.2025 86.0781L86.2025 86.0708ZM100.892 74.9327C100.642 76.088 99.2669 76.4488 97.9467 76.4488C95.7392 76.4493 93.5335 76.3248 91.3408 76.0758C90.9582 76.0405 90.7807 75.386 91.1682 75.0887C91.8821 74.5414 93.1685 73.8809 94.93 73.3751C97.5904 72.6109 99.1244 72.305 100.442 72.5598C100.763 72.6219 100.933 72.9583 100.953 73.1691C101.042 73.7562 101.021 74.354 100.892 74.9339L100.892 74.9327Z" fill="rgb(0,102,255)" fill-rule="nonzero" />
		<path id="Vector" d="M103.311 70.7194C103.591 71.0802 104.333 72.0393 104.783 76.9643C104.927 78.5473 105 80.1589 105 81.5945C105 82.6767 104.958 83.6589 104.874 84.4535C104.463 88.2926 103.691 90.6131 103.659 90.7094C103.54 91.0604 103.321 91.3714 103.028 91.6059C102.735 91.8405 102.38 91.989 102.004 92.0342L102.004 92.0488C102.004 92.566 101.793 93.0619 101.418 93.4276C101.043 93.7933 100.534 93.9988 100.003 93.9988L93.0023 93.9988C92.4717 93.9988 91.963 93.7933 91.5878 93.4276C91.2127 93.0619 91.002 92.566 91.002 92.0488C90.0031 92.0305 89.2817 91.855 88.5216 91.6649C87.371 91.3624 86.1948 91.1613 85.0073 91.064C81.1868 90.7094 77.2262 90.5875 74.9959 90.5875C72.7193 90.5875 68.9262 90.7094 65.1119 91.064C63.9291 91.1611 62.7575 91.3614 61.6114 91.6624C60.8175 91.8623 60.0687 92.05 58.9923 92.05C58.9923 92.5672 58.7815 93.0632 58.4064 93.4289C58.0312 93.7946 57.5225 94 56.992 94L49.9909 94C49.4604 94 48.9516 93.7946 48.5765 93.4289C48.2014 93.0632 47.9906 92.5672 47.9906 92.05L47.9906 92.0256C47.6152 91.9796 47.2608 91.8307 46.9687 91.5962C46.6766 91.3617 46.4588 91.0512 46.3404 90.7008C46.3079 90.6046 45.5365 88.2841 45.1252 84.445C45.0412 83.654 45 82.6758 45 81.5982C45 80.1588 45.0735 78.5419 45.2165 76.957C45.6678 72.032 46.4079 71.0778 46.6879 70.7121C47.3268 69.8822 48.3619 69.3374 49.4521 68.7621C49.5137 68.7303 49.567 68.685 49.6076 68.6298C49.6482 68.5745 49.6751 68.5108 49.6861 68.4437C49.6899 68.4206 49.6918 68.3974 49.6918 68.3743C49.6918 68.3299 49.6849 68.2856 49.6712 68.243C49.6503 68.1781 49.6142 68.1188 49.5659 68.0699C49.3636 67.8717 49.2077 67.6334 49.1086 67.3711C49.0274 67.156 48.986 66.9289 48.986 66.7005C48.986 66.6504 48.988 66.6002 48.992 66.5501C49.0391 66.0548 49.2753 65.5948 49.6539 65.2614C50.0325 64.928 50.5259 64.7454 51.0361 64.75L52.9901 64.75C53.0737 64.7505 53.1572 64.7558 53.2402 64.7658C53.2947 64.7462 53.3513 64.7323 53.4089 64.7244L53.4189 64.7049C54.5741 62.3247 56.1556 59.0658 59.4336 57.4753C64.2893 55.1219 73.2456 55 74.9959 55C76.7461 55 85.7024 55.1219 90.5644 57.4789C93.8424 59.0694 95.4239 62.3283 96.579 64.7086C96.6394 64.7226 96.6984 64.7418 96.7553 64.7658C96.8383 64.7558 96.9218 64.7505 97.0053 64.75L98.9556 64.75C99.4658 64.7454 99.9592 64.928 100.338 65.2614C100.716 65.5948 100.953 66.0548 101 66.5501C101.004 66.6047 101.007 66.6594 101.007 66.7141C101.007 66.9387 100.967 67.1621 100.888 67.3741C100.79 67.6377 100.635 67.8776 100.433 68.0772C100.385 68.1262 100.349 68.1854 100.328 68.2503C100.314 68.2929 100.307 68.3372 100.307 68.3816C100.307 68.4047 100.309 68.4279 100.313 68.451C100.324 68.5181 100.351 68.5818 100.392 68.6371C100.432 68.6924 100.485 68.7377 100.547 68.7694C101.637 69.341 102.667 69.8858 103.311 70.7194ZM103.787 77.0553L103.787 77.0549Q103.363 72.4168 102.521 71.3326C102.176 70.8857 101.363 70.3265 100.083 69.6551C99.8853 69.5533 99.7196 69.4114 99.5858 69.2292C99.4499 69.0443 99.3634 68.839 99.3263 68.6131C99.3134 68.5346 99.307 68.4565 99.307 68.3789C99.307 68.2322 99.33 68.0873 99.3761 67.944C99.4459 67.7269 99.5612 67.537 99.722 67.3743Q99.8614 67.2364 99.9333 67.0695Q99.9425 67.0482 99.9506 67.0264C99.9881 66.9251 100.007 66.8216 100.007 66.7157C100.007 66.6895 100.006 66.6632 100.003 66.6367C99.9801 66.3913 99.8713 66.1831 99.6769 66.0119C99.4758 65.8348 99.2384 65.7475 98.9646 65.75L97.0053 65.75C96.9639 65.7503 96.9207 65.7531 96.8758 65.7586L96.6113 65.7907L96.3658 65.6869Q96.3594 65.6842 96.3525 65.6826L95.8877 65.5745L95.6794 65.1452L95.6792 65.1448C94.8636 63.4642 94.1564 62.2106 93.5577 61.3839Q92.0601 59.3161 90.1279 58.3786Q87.1853 56.9521 81.5078 56.35Q78.2074 56 74.9958 56Q71.7845 56 68.4846 56.3495Q62.8086 56.9508 59.8697 58.3752Q57.9379 59.3125 56.4403 61.3803Q55.5422 62.6202 54.3188 65.1411L54.3186 65.1415L54.3138 65.1515L54.0609 65.6443L53.5621 65.7128L53.3554 65.7872L53.1196 65.7586C53.0747 65.7531 53.0296 65.7502 52.9843 65.75L51.0361 65.75Q50.7907 65.7478 50.5857 65.8377L50.5856 65.8377Q50.44 65.9016 50.3148 66.0119C50.1204 66.1831 50.0113 66.394 49.9876 66.6446Q49.9865 66.6577 49.9859 66.6708Q49.9851 66.6891 49.9851 66.7075Q49.9851 66.8613 50.0442 67.0179C50.0924 67.1455 50.1662 67.2581 50.2657 67.3556C50.4341 67.5259 50.5533 67.7196 50.6231 67.9367C50.6692 68.08 50.6922 68.2249 50.6922 68.3716Q50.6922 68.488 50.6729 68.6058C50.6358 68.8317 50.5493 69.037 50.4134 69.2219C50.2796 69.4041 50.1119 69.5471 49.9103 69.651L49.9093 69.6516Q47.9844 70.6673 47.4804 71.3221L47.4795 71.3232Q46.636 72.4244 46.2123 77.0483Q45.9869 79.5462 45.9869 81.5517Q45.9869 83.0905 46.1196 84.3394Q46.5247 88.1205 47.2879 90.381C47.3463 90.5539 47.4486 90.699 47.5948 90.8164Q47.6926 90.8949 47.8032 90.9461L47.8037 90.9464Q47.9474 91.0128 48.1124 91.0331L48.9906 91.1408L48.9906 92.05Q48.9906 92.2259 49.0496 92.3791L49.0496 92.3792Q49.1201 92.5622 49.2746 92.7128C49.471 92.9043 49.7097 93 49.9909 93L56.992 93C57.2731 93 57.5119 92.9043 57.7083 92.7128Q57.8628 92.5622 57.9332 92.3793L57.9333 92.3791Q57.9923 92.2259 57.9923 92.05L57.9923 91.05L58.9923 91.05C59.6295 91.05 60.4211 90.9309 61.3672 90.6927C62.5656 90.3779 63.7866 90.1694 65.0301 90.0674C68.4704 89.7475 71.7924 89.5875 74.9959 89.5875Q79.9202 89.5875 85.0998 90.0683C86.3409 90.17 87.5662 90.3798 88.7758 90.6977C89.6679 90.9208 90.4161 91.0379 91.0203 91.049L92.002 91.0669L92.002 92.0488C92.002 92.3061 92.0966 92.5271 92.2859 92.7116C92.4823 92.903 92.7211 92.9988 93.0023 92.9988L100.003 92.9988C100.284 92.9988 100.523 92.903 100.72 92.7116C100.909 92.5271 101.004 92.3061 101.004 92.0488L101.004 91.147L101.884 91.0413C102.08 91.0178 102.253 90.9458 102.404 90.8252C102.55 90.7078 102.653 90.5624 102.712 90.389C103.22 88.8824 103.61 86.8684 103.88 84.347C103.969 83.509 104.013 82.5764 104.013 81.5491C104.013 80.2116 103.938 78.7137 103.787 77.0553ZM56.1339 65.9374Q57.1931 63.7433 57.9119 62.697Q59.1884 60.8391 60.7785 60.0674Q62.9931 58.9925 67.2969 58.4046Q71.0272 57.8951 74.9959 57.8951Q78.9713 57.8951 82.6946 58.4028Q87.0008 58.9899 89.2145 60.068C90.2729 60.5817 91.2275 61.4583 92.0782 62.6979C92.5498 63.3851 93.1427 64.4643 93.8569 65.9355L93.9863 66.2093C94.1146 66.4734 94.1788 66.7522 94.1788 67.0456Q94.1788 67.1167 94.1737 67.189C94.1497 67.5348 94.041 67.8523 93.8477 68.1416C93.6566 68.4276 93.4071 68.6494 93.0991 68.8071C92.7942 68.9632 92.47 69.0369 92.1266 69.0281Q90.8482 68.9944 87.2617 68.876Q77.9263 68.5677 74.9959 68.5677Q72.0993 68.5677 62.8736 68.8777C60.406 68.9606 58.7347 69.0135 57.8597 69.0366C57.5157 69.0454 57.1913 68.9717 56.8864 68.8156C56.5784 68.6579 56.3288 68.4361 56.1378 68.1502Q55.9887 67.9271 55.9067 67.6816L55.9067 67.6816L55.9067 67.6816Q55.8292 67.4496 55.8117 67.1976Q55.8068 67.1265 55.8068 67.0564C55.8068 66.7613 55.8724 66.4786 56.0036 66.2084C56.0122 66.1906 56.0251 66.1644 56.0421 66.1296C56.0806 66.0514 56.1075 65.9951 56.123 65.9608L56.1283 65.949L56.1339 65.9374ZM61.2151 60.967C59.1785 61.9554 58.0346 64.3003 57.0345 66.3722C56.9932 66.4636 56.947 66.555 56.9032 66.6452C56.8398 66.7758 56.807 66.9183 56.807 67.0623C56.807 67.0843 56.8078 67.1062 56.8093 67.1282C56.8209 67.2944 56.8759 67.455 56.9692 67.5945C57.0625 67.7341 57.1909 67.848 57.3421 67.9255C57.4934 68.0029 57.6625 68.0413 57.8333 68.037C61.9939 67.9273 70.7452 67.5677 74.9959 67.5677C79.2465 67.5677 87.9978 67.9187 92.1521 68.0284C92.3229 68.0328 92.4921 67.9944 92.6433 67.917C92.7946 67.8395 92.923 67.7256 93.0163 67.586C93.1095 67.4464 93.1646 67.2859 93.1761 67.1197C93.1777 67.0977 93.1784 67.0757 93.1784 67.0538C93.1784 66.9098 93.1457 66.7673 93.0823 66.6366L92.9572 66.3722C91.9521 64.3015 90.8132 61.9554 88.7766 60.967C85.8337 59.5338 79.7341 58.8951 74.9959 58.8951C70.2577 58.8951 64.158 59.5386 61.2151 60.967ZM58.6261 77.0722Q57.0698 77.2543 55.5083 77.3486L55.5079 77.3487Q53.7788 77.4531 52.0432 77.45C51.1545 77.45 50.397 77.3133 49.7705 77.0399Q48.9065 76.6628 48.4756 76.003L48.4756 76.0029Q48.2275 75.623 48.123 75.1493C48.0248 74.7118 47.9757 74.2999 47.9757 73.9134C47.9757 73.6202 48.0039 73.3416 48.0605 73.0778C48.2451 72.2067 48.7972 71.7012 49.7168 71.5614C50.5333 71.4389 51.3316 71.4437 52.1116 71.5759C52.619 71.6618 53.5459 71.8988 54.8923 72.2869C55.0853 72.3426 55.2337 72.3853 55.3377 72.4152Q57.859 73.1381 59.4163 74.2846C59.6958 74.4868 59.879 74.7605 59.966 75.1059C59.998 75.2331 60.014 75.3609 60.014 75.4893C60.014 75.642 59.9913 75.7956 59.946 75.95C59.7442 76.6379 59.3042 77.0119 58.6261 77.0722ZM101.868 75.1505C101.679 76.0156 101.129 76.6458 100.219 77.0412C99.5936 77.3129 98.8362 77.4488 97.9467 77.4488C95.6997 77.4493 93.4601 77.3229 91.228 77.0695C90.891 77.0385 90.6007 76.8888 90.3573 76.6204C90.1711 76.4152 90.0479 76.1714 89.9877 75.8891Q89.9427 75.6779 89.9427 75.4845Q89.9427 75.2014 90.0391 74.9563L90.0391 74.9562Q90.1866 74.5814 90.5595 74.2953Q92.0314 73.167 94.6541 72.4139C96.1037 71.9975 97.2298 71.7255 98.0324 71.5978C99.0205 71.4405 99.887 71.4339 100.632 71.5779C101.038 71.6566 101.368 71.872 101.622 72.2242C101.805 72.4773 101.912 72.7502 101.946 73.0429C101.987 73.3259 102.008 73.6082 102.008 73.8898C102.008 74.3116 101.961 74.7318 101.868 75.1505L101.868 75.1505ZM52.045 76.45C54.2111 76.4539 56.3754 76.3294 58.5259 76.0771C58.8256 76.0536 59.0128 75.7628 59.0128 75.4877C59.0128 75.3336 58.9541 75.1844 58.8235 75.0899C58.0984 74.5561 56.8257 73.8821 55.0617 73.3763C54.9072 73.3319 54.7586 73.2891 54.6154 73.2478C52.2933 72.5785 51.398 72.3204 49.8672 72.55C49.2421 72.6451 49.1171 72.9156 49.0383 73.2873C48.9952 73.4884 48.9679 73.689 48.9679 73.9221C48.9679 74.1963 49.0056 74.5156 49.0995 74.9339C49.3533 76.0844 50.7198 76.45 52.045 76.45ZM97.9467 76.4488C99.2669 76.4488 100.642 76.088 100.892 74.9327L100.892 74.9339C100.969 74.5891 101.007 74.2381 101.007 73.8867C101.007 73.647 100.989 73.4072 100.953 73.1691C100.933 72.9583 100.763 72.6219 100.442 72.5598C99.1244 72.305 97.5904 72.6109 94.93 73.3751C93.1685 73.8809 91.8821 74.5414 91.1682 75.0887C91.0164 75.2052 90.9513 75.3765 90.9513 75.544C90.9513 75.8039 91.1081 76.0544 91.3408 76.0758C93.5335 76.3248 95.7392 76.4493 97.9467 76.4488ZM85.2025 87.1338Q83.3026 87.206 78.9576 87.1936C77.3185 87.1889 76.0104 87.1866 75.0334 87.1866C74.0562 87.1866 72.7482 87.1889 71.1091 87.1936Q65.0697 87.2108 63.755 87.0647Q62.5702 86.9363 61.6562 86.3705Q61.1718 86.0706 60.7634 85.6479C60.2862 85.1539 60.0297 84.6191 59.9937 84.0435C59.9907 83.9963 59.9892 83.9494 59.9892 83.9028C59.9892 83.2747 60.2579 82.7072 60.7951 82.2003C61.939 81.1319 64.2379 80.3794 67.6919 79.9429C67.8646 79.9211 68.1121 79.8896 68.4345 79.8485Q72.3471 79.35 75.0209 79.35Q77.1335 79.35 78.5813 79.4725C79.4282 79.5442 80.6906 79.7023 82.3686 79.9467C86.1064 80.4911 88.4196 81.2639 89.3082 82.265C89.7712 82.7774 90.0026 83.3308 90.0026 83.9251C90.0026 83.9811 90.0006 84.0375 89.9965 84.0943C89.955 84.6664 89.7057 85.1935 89.2487 85.6755Q88.9537 85.9867 88.6109 86.2308L88.6108 86.2308L88.6107 86.2309Q87.6522 86.9133 86.3202 87.0712L85.2025 87.2037L85.2025 87.1338ZM78.9605 86.1936L78.9605 86.1936C82.7238 86.2043 84.9443 86.2106 86.2025 86.0708L86.2025 86.0781C87.5096 85.9232 89.0022 85.0231 89.0022 83.9358C89.0022 83.6119 88.8697 83.2713 88.5603 82.9289C87.8215 82.0965 85.4124 81.4006 82.2244 80.9362C79.0365 80.4719 77.8738 80.35 75.0209 80.35C72.1679 80.35 70.874 80.5487 67.8173 80.935C64.7606 81.3213 62.4653 82.0087 61.4814 82.9277C61.136 83.2535 60.9896 83.5886 60.9896 83.9133C60.9896 84.9779 62.5645 85.9298 63.8655 86.0708C65.1237 86.2106 67.3434 86.2043 71.1063 86.1936L71.1063 86.1936C72.2637 86.1903 73.5671 86.1866 75.0334 86.1866C76.4996 86.1866 77.803 86.1903 78.9605 86.1936Z" fill="rgb(0,102,255)" fill-rule="evenodd" />
	</g>
</svg>
