<svg viewBox="0 0 150 150" xmlns="http://www.w3.org/2000/svg" xmlns:xlink="http://www.w3.org/1999/xlink" width="150.000000" height="150.000000" fill="none" customFrame="#000000">
	<g id="Group 9">
		<circle id="Ellipse 4" cx="75" cy="75" r="74.5" stroke="rgb(0,102,255)" stroke-width="1.000000" />
		<path id="Vector" d="M94 68.5L89.125 63.625L77.945 52.445L74.5 49L71.055 52.445L59.875 63.625L55 68.5L64.75 68.5L64.75 91.25L84.25 91.25L84.25 68.5L94 68.5ZM74.5 55.8932L82.2318 63.625L79.375 63.625L79.375 86.375L69.625 86.375L69.625 63.625L66.7682 63.625L74.5 55.8932ZM67.1875 96.125C66.541 96.125 65.9211 96.3818 65.4639 96.8389C65.0068 97.2961 64.75 97.916 64.75 98.5625C64.75 99.209 65.0068 99.8289 65.4639 100.286C65.9211 100.743 66.541 101 67.1875 101L81.8125 101C82.459 101 83.0789 100.743 83.5361 100.286C83.9932 99.8289 84.25 99.209 84.25 98.5625C84.25 97.916 83.9932 97.2961 83.5361 96.8389C83.0789 96.3818 82.459 96.125 81.8125 96.125L67.1875 96.125Z" fill="rgb(0,102,255)" fill-rule="evenodd" />
		<path id="Vector" d="M89.125 63.625L94 68.5L84.25 68.5L84.25 91.25L64.75 91.25L64.75 68.5L55 68.5L74.5 49L77.945 52.445L89.125 63.625ZM91.5858 67.5L88.4179 64.3321L77.2379 53.1521L74.5 50.4142L71.7621 53.1521L60.5821 64.3321L57.4142 67.5L65.75 67.5L65.75 90.25L83.25 90.25L83.25 67.5L91.5858 67.5ZM75.2071 55.1861L84.646 64.625L80.375 64.625L80.375 87.375L68.625 87.375L68.625 64.625L64.354 64.625L74.5 54.479L75.2071 55.1861ZM82.2318 63.625L74.5 55.8932L66.7682 63.625L69.625 63.625L69.625 86.375L79.375 86.375L79.375 63.625L82.2318 63.625ZM65.4639 96.8389C65.9211 96.3818 66.541 96.125 67.1875 96.125L81.8125 96.125C82.459 96.125 83.0789 96.3818 83.5361 96.8389C83.9932 97.2961 84.25 97.916 84.25 98.5625C84.25 99.209 83.9932 99.8289 83.5361 100.286C83.0789 100.743 82.459 101 81.8125 101L67.1875 101C66.541 101 65.9211 100.743 65.4639 100.286C65.0068 99.8289 64.75 99.209 64.75 98.5625C64.75 97.916 65.0068 97.2961 65.4639 96.8389ZM67.1875 97.125C66.7905 97.125 66.4517 97.2654 66.171 97.546Q65.9606 97.7565 65.8553 98.0105L65.8553 98.0107L65.8552 98.0108Q65.75 98.2649 65.75 98.5625Q65.75 98.8602 65.8553 99.1143Q65.9605 99.3685 66.171 99.579C66.4517 99.8596 66.7905 100 67.1875 100L81.8125 100C82.2094 100 82.5483 99.8596 82.829 99.579Q83.0394 99.3685 83.1447 99.1144L83.1447 99.1143L83.1448 99.1142Q83.25 98.8602 83.25 98.5625Q83.25 98.2648 83.1447 98.0107Q83.0395 97.7566 82.829 97.546C82.5483 97.2654 82.2094 97.125 81.8125 97.125L67.1875 97.125Z" fill="rgb(255,255,255)" fill-rule="evenodd" />
	</g>
</svg>
